<?xml version="1.0" encoding="UTF-8" standalone="no"?>
<!-- Created with Inkscape (http://www.inkscape.org/) -->

<svg
   width="1920"
   height="1080"
   viewBox="0 0 507.99999 285.75"
   version="1.1"
   id="svg1"
   xml:space="preserve"
   xmlns="http://www.w3.org/2000/svg"
   xmlns:svg="http://www.w3.org/2000/svg"><defs
     id="defs1" /><g
     id="layer1"><g
       style="fill:none"
       id="g1"
       transform="matrix(0.26458333,0,0,0.26458333,-6.8295819,56.396323)"><g
         id="g2"
         transform="translate(-103.95981,0.94863711)"><rect
           style="fill:#333333"
           id="rect2"
           width="1933.4502"
           height="1098.5513"
           x="125.77767"
           y="-218.09483" /><path
           d="m 1007.7634,311.04991 16.234,3.362 c 2.24,-4.483 6.718,-7.285 11.756,-7.285 2.799,0 5.038,1.121 7.278,2.242 l 99.643,-89.104 c 0,0 -1.679,-4.483 -1.679,-7.285 0,-3.923 1.679,-7.845 4.478,-10.647 l -39.185,-45.3927 -99.084,154.6697 z"
           fill="#3b3b3b"
           id="path1"
           style="fill:#b3b3b3" /><path
           d="m 1219.9234,277.42591 -12.316,-60.524 c 0,0 0,-3.922 1.12,-5.604 l 26.87,-45.3918 11.196,-29.1407 -76.132,68.3685 c 0,0 1.679,4.483 1.679,7.285 0,2.802 -0.56,4.483 -1.679,6.725 l 49.262,57.721 z"
           fill="#3b3b3b"
           id="path2"
           style="fill:#b3b3b3" /><path
           d="m 1110.7624,149.65361 38.626,45.3923 -12.316,-86.8618 z"
           fill="#3b3b3b"
           id="path3"
           style="fill:#b3b3b3" /><path
           d="m 1156.6664,228.67091 c -3.359,0 -6.158,-1.12 -8.397,-2.802 l -99.644,89.104 c 0,0 0.56,2.802 1.12,4.483 l 152.265,30.262 z"
           fill="#3b3b3b"
           id="path4"
           style="fill:#b3b3b3" /><path
           d="m 1157.7894,197.28891 c 0,0 5.038,1.12 7.277,2.802 l 85.649,-76.7751 -106.921,-22.4159 13.435,96.949 z"
           fill="#3b3b3b"
           id="path5"
           style="fill:#b3b3b3" /><path
           d="m 1047.5104,326.74091 c 0,0 -2.239,3.362 -3.918,4.483 l 47.582,125.529 c 0,0 1.12,0 1.68,0 6.158,0 11.756,3.923 13.995,8.966 l 63.816,-14.01 -1.679,-35.305 c 0,0 0,-2.802 1.12,-3.922 l 28.549,-56.04 -150.585,-29.701 z"
           fill="#3b3b3b"
           id="path6"
           style="fill:#b3b3b3" /><path
           d="m 1108.5244,475.24591 65.497,30.822 -2.24,-46.513 -62.697,14.01 c 0,0 0,1.121 0,1.681 z"
           fill="#3b3b3b"
           id="path7"
           style="fill:#b3b3b3" /><path
           d="m 978.09343,505.50791 c 0,0 0,0.561 -0.56,1.121 l -66.616,44.271 h 83.41 z"
           fill="#3b3b3b"
           id="path8"
           style="fill:#b3b3b3" /><path
           d="m 1179.0594,521.75991 -32.469,26.899 68.295,-0.561 z"
           fill="#3b3b3b"
           id="path9"
           style="fill:#b3b3b3" /><path
           d="m 1165.0614,225.86891 c 0,0 -0.559,0 -1.119,0.56 l 43.104,114.882 11.756,-52.678 -53.741,-63.325 z"
           fill="#3b3b3b"
           id="path10"
           style="fill:#b3b3b3" /><path
           d="m 1268.6274,333.46591 -41.984,-42.591 -13.435,56.601 47.022,7.845 z"
           fill="#3b3b3b"
           id="path11"
           style="fill:#b3b3b3" /><path
           d="m 962.41943,381.65891 61.57797,-54.919 c 0,0 -1.12,-2.802 -1.12,-4.483 l -19.592,-3.923 -40.86597,63.886 z"
           fill="#3b3b3b"
           id="path12"
           style="fill:#b3b3b3" /><path
           d="m 1081.6584,462.35691 c 0,0 1.679,-1.681 2.799,-2.802 l -47.583,-125.529 c 0,0 -0.559,0 -1.119,0 -2.239,0 -4.479,-1.121 -6.718,-2.242 l -76.69197,68.929 129.31297,61.084 z"
           fill="#3b3b3b"
           id="path13"
           style="fill:#b3b3b3" /><path
           d="m 1134.2774,548.65791 40.305,-33.063 -69.414,-33.064 c -2.799,3.363 -7.278,5.604 -11.756,5.604 -5.598,0 -10.636,-3.362 -13.435,-7.845 l -95.16497,20.734 17.91297,49.315 132.112,-1.12 z"
           fill="#3b3b3b"
           id="path14"
           style="fill:#b3b3b3" /><path
           d="m 952.34543,409.67891 26.87,84.06 97.96497,-21.856 c 0,-1.12 0,-1.681 0.56,-2.802 z"
           fill="#3b3b3b"
           id="path15"
           style="fill:#b3b3b3" /></g></g></g></svg>
