<?xml version="1.0" encoding="UTF-8"?>
<svg id="Layer_1" data-name="Layer 1" xmlns="http://www.w3.org/2000/svg" viewBox="0 0 16 16">
  <defs>
    <style>
      .cls-1 {
        fill: #e67634;
        stroke-width: 0px;
      }
    </style>
  </defs>
  <path class="cls-1" d="M5.63,7.55l.53.1c.07-.14.21-.24.38-.24.09,0,.16.03.23.08l3.2-2.87c-.04-.07-.06-.14-.06-.23,0-.13.05-.25.14-.34l-1.25-1.46-3.17,4.96Z"/>
  <path class="cls-1" d="M12.45,6.47l-.39-1.94c-.01-.06,0-.12.03-.18l.86-1.46.37-.93-2.46,2.2c.04.07.06.14.06.23s-.02.15-.06.22l1.58,1.85Z"/>
  <polygon class="cls-1" points="8.95 2.37 10.19 3.83 9.8 1.04 8.95 2.37"/>
  <path class="cls-1" d="M10.42,4.9s0,0,0,0c-.1,0-.19-.04-.27-.09l-3.21,2.87s.03.09.03.14l4.9.97-1.45-3.88Z"/>
  <path class="cls-1" d="M10.46,3.9c.09,0,.17.04.24.08l2.76-2.47-3.44-.72.44,3.11Z"/>
  <path class="cls-1" d="M6.92,8.06c-.03.06-.07.1-.12.14l1.53,4.03s.03-.01.05-.01c.2,0,.37.12.45.29l2.04-.45-.06-1.12s0-.09.03-.13l.91-1.8-4.83-.96Z"/>
  <path class="cls-1" d="M8.87,12.81l2.1.99-.08-1.49-2.01.45s0,.03-.01.05Z"/>
  <path class="cls-1" d="M4.69,13.79s-.01.02-.02.03l-2.14,1.43,2.68-.03-.52-1.43Z"/>
  <polygon class="cls-1" points="11.14 14.31 10.11 15.17 12.29 15.15 11.14 14.31"/>
  <path class="cls-1" d="M10.7,4.8s-.02.02-.04.02l1.38,3.68.38-1.68-1.73-2.03Z"/>
  <polygon class="cls-1" points="14.01 8.27 12.67 6.89 12.25 8.72 13.75 8.97 14.01 8.27"/>
  <path class="cls-1" d="M4.18,9.82l1.98-1.77s-.04-.1-.04-.15l-.63-.12-1.31,2.04Z"/>
  <path class="cls-1" d="M8.01,12.4s.06-.06.09-.08l-1.53-4.03s-.02,0-.03,0c-.08,0-.15-.03-.22-.07l-2.47,2.21,4.15,1.96Z"/>
  <path class="cls-1" d="M9.71,15.17l1.29-1.07s0,0,0-.01l-2.23-1.05c-.09.11-.23.18-.38.18-.19,0-.34-.11-.43-.26l-3.05.67.57,1.58,4.24-.04Z"/>
  <path class="cls-1" d="M3.86,10.72l.87,2.7,3.15-.7s0,0,0,0c0-.03.01-.06.02-.09l-4.04-1.91Z"/>
</svg>